<?xml version="1.0" encoding="UTF-8" standalone="no"?>
<!-- Created with Inkscape (http://www.inkscape.org/) -->

<svg
   width="1.325181in"
   height="0.27663422in"
   viewBox="0 0 33.659598 7.0265091"
   version="1.1"
   id="svg1"
   xml:space="preserve"
   inkscape:version="1.3.2 (091e20e, 2023-11-25, custom)"
   sodipodi:docname="Meeting Minutes A4 Template - Option 3.svg"
   inkscape:export-filename="Meeting Minutes A4 Template - Option 3.png"
   inkscape:export-xdpi="150"
   inkscape:export-ydpi="150"
   xmlns:inkscape="http://www.inkscape.org/namespaces/inkscape"
   xmlns:sodipodi="http://sodipodi.sourceforge.net/DTD/sodipodi-0.dtd"
   xmlns="http://www.w3.org/2000/svg"
   xmlns:svg="http://www.w3.org/2000/svg"><sodipodi:namedview
     id="namedview1"
     pagecolor="#ffffff"
     bordercolor="#000000"
     borderopacity="0.25"
     inkscape:showpageshadow="2"
     inkscape:pageopacity="0.0"
     inkscape:pagecheckerboard="0"
     inkscape:deskcolor="#d1d1d1"
     inkscape:document-units="mm"
     inkscape:zoom="0.45344418"
     inkscape:cx="396.96176"
     inkscape:cy="561.25983"
     inkscape:window-width="1366"
     inkscape:window-height="705"
     inkscape:window-x="-8"
     inkscape:window-y="-8"
     inkscape:window-maximized="1"
     inkscape:current-layer="layer1"
     inkscape:export-bgcolor="#ffffffff" /><defs
     id="defs1"><rect
       x="386.48639"
       y="181.38948"
       width="304.6489"
       height="55.635818"
       id="rect4-6-1-3-2-2-3" /></defs><g
     inkscape:label="Layer 1"
     inkscape:groupmode="layer"
     id="layer1"
     style="display:inline"
     transform="translate(-14.086498,-284.03293)"><g
       id="g1"
       transform="translate(5.6870411)"><g
         id="g120"
         transform="translate(-63.096124,-76.591842)"><g
           id="g61-2-9-8-0"
           transform="matrix(0.03207244,0,0,0.03207244,68.234396,365.7386)"><path
             style="fill:#000000"
             d="m 163.74866,-15.879884 c -27.54896,-3.846338 -51.22185,-24.229262 -58.98185,-50.784781 -1.67808,-5.742561 -3.085,-15.136823 -3.085,-20.599118 0,-10.033153 2.78566,-21.992667 7.29673,-31.326667 10.5381,-21.80471 31.30338,-36.85274 55.33457,-40.09946 7.4662,-1.00872 11.7249,-1.00872 19.19111,0 15.29236,2.06606 28.92219,8.60469 40.02392,19.20065 26.64422,25.43035 30.05767,65.964531 8.04215,95.499303 -15.60903,20.9402 -41.70539,31.756377 -67.82163,28.110073 z"
             id="path55-3-2-4-8" /><path
             style="fill:#e2c58a;fill-opacity:1"
             d="m 201.93875,-51.440914 c 1.66637,-0.815283 4.5503,-2.92922 6.40873,-4.697638 5.02722,-4.78374 4.98821,-4.916466 -4.12302,-14.027697 -5.27606,-5.276056 -7.88706,-7.501979 -8.79981,-7.501979 -0.86608,0 -3.01783,1.658975 -6.46802,4.986767 -2.84361,2.742722 -5.86655,5.160025 -6.71766,5.371783 -2.06091,0.512761 -4.7147,-0.653246 -9.04778,-3.97536 -4.64204,-3.559001 -13.01063,-11.97807 -16.35932,-16.458006 -2.2563,-3.018531 -2.67876,-3.979455 -2.67876,-6.09311 0,-2.397269 0.23016,-2.74732 5.15055,-7.833476 3.88118,-4.01193 5.15056,-5.69628 5.15056,-6.83429 0,-1.18898 -1.61459,-3.11272 -7.59052,-9.04393 -5.33521,-5.29529 -7.97717,-7.53371 -8.89185,-7.53371 -1.70739,0 -8.04857,6.53613 -10.08328,10.39328 -1.3521,2.56313 -1.51411,3.47673 -1.51004,8.51561 0.004,5.16576 0.16843,6.02739 1.93688,10.159998 8.8537,20.689779 29.29012,39.615786 49.08821,45.460193 4.99728,1.475202 10.376,1.146437 14.53513,-0.888435 z"
             id="path60-3-3-2-0" /></g><text
           xml:space="preserve"
           transform="matrix(0.13229166,0,0,0.13229166,27.392956,337.50979)"
           id="text4-5-8-1-3-9-9"
           style="font-style:normal;font-variant:normal;font-weight:300;font-stretch:normal;font-size:21.3333px;font-family:Poppins;-inkscape-font-specification:'Poppins, Light';font-variant-ligatures:normal;font-variant-caps:normal;font-variant-numeric:normal;font-variant-east-asian:normal;white-space:pre;shape-inside:url(#rect4-6-1-3-2-2-3);display:inline;fill:#000000;fill-opacity:1;stroke:none;stroke-width:1.13386;stroke-dasharray:none;stroke-opacity:1"><tspan
             x="386.48633"
             y="200.85169"
             id="tspan1">+20 121 111 3343
</tspan><tspan
             x="386.48633"
             y="227.51831"
             id="tspan2">+20 121 111 2442</tspan></text></g></g></g></svg>
