<?xml version="1.0" encoding="UTF-8" standalone="no"?>
<!-- Created with Inkscape (http://www.inkscape.org/) -->

<svg
   width="1.6437242in"
   height="0.18258667in"
   viewBox="0 0 41.750595 4.6377014"
   version="1.1"
   id="svg1"
   xml:space="preserve"
   inkscape:version="1.3.2 (091e20e, 2023-11-25, custom)"
   sodipodi:docname="Meeting Minutes A4 Template - Option 3.svg"
   inkscape:export-filename="Meeting Minutes A4 Template - Option 3.png"
   inkscape:export-xdpi="150"
   inkscape:export-ydpi="150"
   xmlns:inkscape="http://www.inkscape.org/namespaces/inkscape"
   xmlns:sodipodi="http://sodipodi.sourceforge.net/DTD/sodipodi-0.dtd"
   xmlns="http://www.w3.org/2000/svg"
   xmlns:svg="http://www.w3.org/2000/svg"><sodipodi:namedview
     id="namedview1"
     pagecolor="#ffffff"
     bordercolor="#000000"
     borderopacity="0.25"
     inkscape:showpageshadow="2"
     inkscape:pageopacity="0.0"
     inkscape:pagecheckerboard="0"
     inkscape:deskcolor="#d1d1d1"
     inkscape:document-units="mm"
     inkscape:zoom="0.45344418"
     inkscape:cx="396.96176"
     inkscape:cy="561.25983"
     inkscape:window-width="1366"
     inkscape:window-height="705"
     inkscape:window-x="-8"
     inkscape:window-y="-8"
     inkscape:window-maximized="1"
     inkscape:current-layer="layer1"
     inkscape:export-bgcolor="#ffffffff" /><defs
     id="defs1"><rect
       x="386.48639"
       y="181.38948"
       width="303.23468"
       height="35.836826"
       id="rect4-6-4-1-3-0" /></defs><g
     inkscape:label="Layer 1"
     inkscape:groupmode="layer"
     id="layer1"
     style="display:inline"
     transform="translate(-54.826986,-284.03293)"><g
       id="g1"
       transform="translate(5.6870411)"><g
         id="g121"
         transform="translate(-66.641828,-76.354105)"
         inkscape:export-filename=".\g121.svg"
         inkscape:export-xdpi="150"
         inkscape:export-ydpi="150"><g
           id="g64-6-6-3-7"
           transform="matrix(0.03211965,0,0,0.03211965,107.63184,366.53643)"><path
             style="fill:#161610;fill-opacity:1"
             d="m 312.96759,-47.933758 c -29.49632,-5.149795 -53.39112,-29.239056 -58.37165,-58.846692 -1.14567,-6.81068 -1.14567,-18.10816 0,-24.91884 5.02245,-29.85684 29.03762,-53.872 58.89445,-58.89445 6.81068,-1.14568 18.10816,-1.14568 24.91885,0 14.11327,2.3741 26.96142,8.84898 37.42509,18.86054 10.47616,10.0235 17.08601,21.54725 20.72044,36.12444 1.17723,4.72175 1.33692,6.67689 1.33692,16.36889 0,9.692 -0.15969,11.64714 -1.33692,16.36889 -3.63443,14.577188 -10.24428,26.100935 -20.72044,36.124441 -10.37592,9.927595 -23.43018,16.506347 -37.42509,18.86054 -6.62481,1.114411 -18.9173,1.091336 -25.44165,-0.04776 z"
             id="path56-4-6-4-9" /><path
             style="fill:#e2c58a;fill-opacity:1"
             d="m 343.55414,-128.66893 c 11.32085,-11.29775 16.57516,-16.91039 16.10839,-17.20692 -0.9052,-0.57505 -66.52024,-0.57505 -67.42544,0 -0.80455,0.51112 32.40099,33.97376 33.71272,33.97376 0.44177,0 8.36371,-7.54508 17.60433,-16.76684 z"
             id="path64-7-2-6-0" /><path
             style="fill:#e2c58a;fill-opacity:1"
             d="m 364.31475,-119.23987 c 0,-11.95211 -0.19676,-22.04078 -0.43725,-22.41926 -0.29374,-0.46229 -4.22584,3.10384 -11.98064,10.86556 l -11.54339,11.5537 11.54339,11.5537 c 7.7548,7.761722 11.6869,11.327855 11.98064,10.86556 0.24049,-0.378483 0.43725,-10.46715 0.43725,-22.41926 z"
             id="path63-6-7-5-2" /><path
             style="fill:#e2c58a;fill-opacity:1"
             d="m 300.00449,-130.79184 c -7.75594,-7.76287 -11.68863,-11.32958 -11.98237,-10.86729 -0.52558,0.82718 -0.61119,43.367569 -0.09,44.725758 0.28258,0.736393 2.97815,-1.663687 11.99101,-10.676548 l 11.62648,-11.62649 z"
             id="path62-9-5-1-7" /><path
             style="fill:#e2c58a;fill-opacity:1"
             d="m 359.65796,-92.601068 c 0.4623,-0.29374 -3.10216,-4.224168 -10.86055,-11.975632 l -11.54869,-11.53839 -3.83342,3.80404 c -6.18698,6.13958 -8.74399,6.13958 -14.93098,0 l -3.83341,-3.80404 -11.5487,11.53839 c -7.75839,7.751464 -11.32284,11.681892 -10.86055,11.975632 0.89924,0.571364 66.51707,0.571364 67.4163,0 z"
             id="path61-1-4-3-5" /></g><text
           xml:space="preserve"
           transform="matrix(0.13229166,0,0,0.13229166,71.732067,336.92038)"
           id="text4-5-9-4-7-6"
           style="font-style:normal;font-variant:normal;font-weight:300;font-stretch:normal;font-size:21.3333px;font-family:Poppins;-inkscape-font-specification:'Poppins, Light';font-variant-ligatures:normal;font-variant-caps:normal;font-variant-numeric:normal;font-variant-east-asian:normal;white-space:pre;shape-inside:url(#rect4-6-4-1-3-0);display:inline;fill:#000000;fill-opacity:1;stroke:none;stroke-width:1.13386;stroke-dasharray:none;stroke-opacity:1"><tspan
             x="386.48633"
             y="200.85169"
             id="tspan1">info@colabconcepts.com</tspan></text></g></g></g></svg>
