<?xml version="1.0" encoding="UTF-8" standalone="no"?>
<!-- Created with Inkscape (http://www.inkscape.org/) -->

<svg
   width="5.0373092in"
   height="1.0059054in"
   viewBox="0 0 127.94765 25.549997"
   version="1.1"
   id="svg1"
   xml:space="preserve"
   inkscape:version="1.3.2 (091e20e, 2023-11-25, custom)"
   sodipodi:docname="Meeting Minutes A4 Template - Option 3.svg"
   inkscape:export-filename="Meeting Minutes A4 Template - Option 3.png"
   inkscape:export-xdpi="150"
   inkscape:export-ydpi="150"
   xmlns:inkscape="http://www.inkscape.org/namespaces/inkscape"
   xmlns:sodipodi="http://sodipodi.sourceforge.net/DTD/sodipodi-0.dtd"
   xmlns="http://www.w3.org/2000/svg"
   xmlns:svg="http://www.w3.org/2000/svg"><sodipodi:namedview
     id="namedview1"
     pagecolor="#ffffff"
     bordercolor="#000000"
     borderopacity="0.25"
     inkscape:showpageshadow="2"
     inkscape:pageopacity="0.0"
     inkscape:pagecheckerboard="0"
     inkscape:deskcolor="#d1d1d1"
     inkscape:document-units="mm"
     inkscape:zoom="0.45344418"
     inkscape:cx="396.96176"
     inkscape:cy="561.25983"
     inkscape:window-width="1366"
     inkscape:window-height="705"
     inkscape:window-x="-8"
     inkscape:window-y="-8"
     inkscape:window-maximized="1"
     inkscape:current-layer="layer1"
     inkscape:export-bgcolor="#ffffffff" /><defs
     id="defs1" /><g
     inkscape:label="Layer 1"
     inkscape:groupmode="layer"
     id="layer1"
     style="display:inline"
     transform="translate(-82.052301)"><g
       id="g9"
       transform="matrix(0.07000428,0,0,0.07000429,-530.82447,202.19356)"
       style="stroke:#f0eae8;stroke-width:4.28545;stroke-dasharray:none;stroke-opacity:1"><g
         inkscape:label="0"
         id="g100"
         style="stroke:#f0eae8;stroke-width:4.28545;stroke-dasharray:none;stroke-opacity:1"><path
           d="m 9843.1988,-2790.6566 h 11.4906 v 116.2416 h 66.8055 v -26.7222 h -40.0833 v -116.2416 h -38.2128 z"
           style="fill:none;stroke:#f0eae8;stroke-width:4.28545;stroke-dasharray:none;stroke-opacity:1"
           id="path5-6"
           inkscape:export-filename="path5-6.svg"
           inkscape:export-xdpi="171.43832"
           inkscape:export-ydpi="171.43832" /><path
           d="m 9803.1155,-2661.0539 h 11.4906 v 116.2416 h 66.8055 v -26.7222 h -40.0833 v -116.2416 h -38.2128 z"
           style="fill:none;stroke:#f0eae8;stroke-width:4.28545;stroke-dasharray:none;stroke-opacity:1"
           id="path6-1" /><path
           d="m 9763.5667,-2835.4163 h 11.4905 v 116.2416 h 66.8055 v -26.7222 h -40.0833 v -116.2416 h -38.2127 z"
           style="fill:none;stroke:#f0eae8;stroke-width:4.28545;stroke-dasharray:none;stroke-opacity:1"
           id="path7-3" /><path
           d="m 9815.1405,-2888.3024 v 39.525 h 66.8055 v -26.7223 h -40.0833 v -12.8027"
           style="fill:none;stroke:#f0eae8;stroke-width:4.28545;stroke-dasharray:none;stroke-opacity:1"
           id="path8-4" /><path
           d="m 9723.4833,-2705.8136 h 11.4906 v 116.2416 h 66.8055 v -26.7222 h -40.0833 v -116.2416 h -38.2128 z"
           style="fill:none;stroke:#f0eae8;stroke-width:4.28545;stroke-dasharray:none;stroke-opacity:1"
           id="path9-5" /><path
           d="m 9683.9345,-2888.3024 v 8.1264 h 11.4905 v 116.2416 h 66.8055 v -26.7222 h -40.0833 v -97.6458"
           style="fill:none;stroke:#f0eae8;stroke-width:4.28545;stroke-dasharray:none;stroke-opacity:1"
           id="path10-3" /><path
           d="m 9643.8512,-2750.5733 h 11.4905 v 116.2416 h 66.8055 v -26.7222 h -40.0833 v -116.2416 h -38.2127 z"
           style="fill:none;stroke:#f0eae8;stroke-width:4.28545;stroke-dasharray:none;stroke-opacity:1"
           id="path11-0" /><path
           d="m 9683.9345,-2888.3024 v 8.1264 h 11.4905 v 116.2416 h 66.8055 v -26.7222 h -40.0833 v -97.6458"
           style="fill:none;stroke:#f0eae8;stroke-width:4.28545;stroke-dasharray:none;stroke-opacity:1"
           id="path12-9" /><path
           d="m 9615.7928,-2888.3024 v 79.6083 h 66.8056 v -26.7222 h -40.0834 v -52.8861"
           style="fill:none;stroke:#f0eae8;stroke-width:4.28545;stroke-dasharray:none;stroke-opacity:1"
           id="path13-4" /><path
           d="m 9564.219,-2795.333 h 11.4905 v 116.2416 h 66.8055 v -26.7222 h -40.0833 v -116.2416 h -38.2127 z"
           style="fill:none;stroke:#f0eae8;stroke-width:4.28545;stroke-dasharray:none;stroke-opacity:1"
           id="path14-0" /><path
           d="m 9536.1607,-2888.3024 v 34.8486 h 66.8055 v -26.7222 h -40.0833 v -8.1264"
           style="fill:none;stroke:#f0eae8;stroke-width:4.28545;stroke-dasharray:none;stroke-opacity:1"
           id="path15-1" /><path
           d="m 9484.5868,-2840.0927 h 11.4905 v 116.2416 h 66.8056 v -26.7222 h -40.0834 v -116.2416 h -38.2127 z"
           style="fill:none;stroke:#f0eae8;stroke-width:4.28545;stroke-dasharray:none;stroke-opacity:1"
           id="path16-0" /><path
           d="m 9522.2651,-2523.3248 v -39.525 h -38.2128 v 26.7222 h 11.4906 v 12.8028"
           style="fill:none;stroke:#f0eae8;stroke-width:4.28545;stroke-dasharray:none;stroke-opacity:1"
           id="path17-4" /><path
           d="m 9801.245,-2523.3248 v -34.8486 h -38.2128 v 26.7222 h 11.4906 v 8.1264"
           style="fill:none;stroke:#f0eae8;stroke-width:4.28545;stroke-dasharray:none;stroke-opacity:1"
           id="path18-4" /><path
           d="m 9721.6128,-2523.3248 v -79.6083 H 9683.4 v 26.7222 h 11.4906 v 52.8861"
           style="fill:none;stroke:#f0eae8;stroke-width:4.28545;stroke-dasharray:none;stroke-opacity:1"
           id="path19-9" /><path
           d="m 9721.6128,-2523.3248 v -79.6083 H 9683.4 v 26.7222 h 11.4906 v 52.8861"
           style="fill:none;stroke:#f0eae8;stroke-width:4.28545;stroke-dasharray:none;stroke-opacity:1"
           id="path20-9" /><path
           d="m 9682.0639,-2523.3248 v -8.1264 h -40.0833 v -116.2416 h -38.2128 v 26.7222 h 11.4906 v 97.6458"
           style="fill:none;stroke:#f0eae8;stroke-width:4.28545;stroke-dasharray:none;stroke-opacity:1"
           id="path21-3" /><path
           d="m 9524.1357,-2665.7303 h 11.4905 v 116.2416 h 66.8055 v -26.7222 h -40.0833 v -116.2416 h -38.2127 z"
           style="fill:none;stroke:#f0eae8;stroke-width:4.28545;stroke-dasharray:none;stroke-opacity:1"
           id="path22-1" /><path
           d="m 9444.5035,-2710.49 h 11.4905 v 116.2416 h 66.8055 v -26.7222 h -40.0833 v -116.2416 h -38.2127 z"
           style="fill:none;stroke:#f0eae8;stroke-width:4.28545;stroke-dasharray:none;stroke-opacity:1"
           id="path23-0" /><path
           d="m 9404.9546,-2888.3024 v 3.45 h 11.4905 v 116.2416 h 66.8056 v -26.7222 h -40.0833 v -92.9694"
           style="fill:none;stroke:#f0eae8;stroke-width:4.28545;stroke-dasharray:none;stroke-opacity:1"
           id="path24-7" /><path
           d="m 9442.6329,-2523.3248 v -84.2847 h -38.2127 v 26.7222 h 11.4905 v 57.5625"
           style="fill:none;stroke:#f0eae8;stroke-width:4.28545;stroke-dasharray:none;stroke-opacity:1"
           id="path25-6" /><path
           d="m 9364.8713,-2755.2497 h 11.4905 v 116.2416 h 66.8056 v -26.7222 h -40.0834 v -116.2416 h -38.2127 z"
           style="fill:none;stroke:#f0eae8;stroke-width:4.28545;stroke-dasharray:none;stroke-opacity:1"
           id="path26-5" /><path
           d="m 9336.813,-2888.3024 v 74.9319 h 66.8055 v -26.7222 h -40.0833 v -48.2097"
           style="fill:none;stroke:#f0eae8;stroke-width:4.28545;stroke-dasharray:none;stroke-opacity:1"
           id="path27-2" /><path
           d="m 9285.2391,-2800.0094 h 11.4905 v 116.2416 h 66.8056 v -26.7222 h -40.0833 v -116.2416 h -38.2128 z"
           style="fill:none;stroke:#f0eae8;stroke-width:4.28545;stroke-dasharray:none;stroke-opacity:1"
           id="path28" /><path
           d="m 9336.813,-2888.3024 v 74.9319 h 66.8055 v -26.7222 h -40.0833 v -48.2097"
           style="fill:none;stroke:#f0eae8;stroke-width:4.28545;stroke-dasharray:none;stroke-opacity:1"
           id="path29" /><path
           d="m 9257.1808,-2888.3024 v 30.1722 h 66.8055 v -26.7222 h -40.0833 v -3.45"
           style="fill:none;stroke:#f0eae8;stroke-width:4.28545;stroke-dasharray:none;stroke-opacity:1"
           id="path30" /><path
           d="m 9205.6069,-2844.7691 h 11.4906 v 116.2416 h 66.8055 v -26.7222 h -40.0833 v -116.2416 h -38.2128 z"
           style="fill:none;stroke:#f0eae8;stroke-width:4.28545;stroke-dasharray:none;stroke-opacity:1"
           id="path31" /><path
           d="m 9137.4653,-2888.3024 v 115.0152 h 66.8055 v -26.7222 h -40.0833 v -88.293"
           style="fill:none;stroke:#f0eae8;stroke-width:4.28545;stroke-dasharray:none;stroke-opacity:1"
           id="path32" /><path
           d="m 9163.653,-2523.3248 v -88.9611 h -38.2127 v 26.7222 h 11.4905 v 62.2389"
           style="fill:none;stroke:#f0eae8;stroke-width:4.28545;stroke-dasharray:none;stroke-opacity:1"
           id="path33" /><path
           d="m 9403.084,-2523.3248 v -12.8028 h -40.0833 v -116.2416 h -38.2127 v 26.7222 h 11.4905 v 102.3222"
           style="fill:none;stroke:#f0eae8;stroke-width:4.28545;stroke-dasharray:none;stroke-opacity:1"
           id="path34" /><path
           d="m 9403.084,-2523.3248 v -12.8028 h -40.0833 v -116.2416 h -38.2127 v 26.7222 h 11.4905 v 102.3222"
           style="fill:none;stroke:#f0eae8;stroke-width:4.28545;stroke-dasharray:none;stroke-opacity:1"
           id="path35" /><path
           d="m 9245.1558,-2670.4067 h 11.4905 v 116.2416 h 66.8056 v -26.7222 h -40.0834 v -116.2416 h -38.2127 z"
           style="fill:none;stroke:#f0eae8;stroke-width:4.28545;stroke-dasharray:none;stroke-opacity:1"
           id="path36" /><path
           d="m 9165.5236,-2715.1664 h 11.4905 v 116.2416 h 66.8056 v -26.7222 h -40.0833 v -116.2416 h -38.2128 z"
           style="fill:none;stroke:#f0eae8;stroke-width:4.28545;stroke-dasharray:none;stroke-opacity:1"
           id="path37" /><path
           d="m 9085.8914,-2759.9261 h 11.4906 v 116.2416 h 66.8055 v -26.7222 h -40.0833 v -116.2416 h -38.2128 z"
           style="fill:none;stroke:#f0eae8;stroke-width:4.28545;stroke-dasharray:none;stroke-opacity:1"
           id="path38" /><path
           d="m 9057.8331,-2888.3024 v 70.2555 h 66.8055 v -26.7222 h -40.0833 v -43.5333"
           style="fill:none;stroke:#f0eae8;stroke-width:4.28545;stroke-dasharray:none;stroke-opacity:1"
           id="path39" /><path
           d="m 9124.1042,-2523.3248 v -17.4792 h -40.0833 v -116.2416 h -38.2128 v 26.7222 h 11.4905 v 106.9986"
           style="fill:none;stroke:#f0eae8;stroke-width:4.28545;stroke-dasharray:none;stroke-opacity:1"
           id="path40" /><path
           d="m 9006.2592,-2804.6858 h 11.4906 v 116.2416 h 66.8055 v -26.7222 h -40.0833 v -116.2416 h -38.2128 z"
           style="fill:none;stroke:#f0eae8;stroke-width:4.28545;stroke-dasharray:none;stroke-opacity:1"
           id="path41" /><path
           d="m 8978.2009,-2888.3024 v 25.4958 h 66.8055 v -25.4958"
           style="fill:none;stroke:#f0eae8;stroke-width:4.28545;stroke-dasharray:none;stroke-opacity:1"
           id="path42" /><path
           d="m 8926.627,-2849.4455 h 11.4906 v 116.2416 h 66.8055 v -26.7222 h -40.0833 v -116.2416 h -38.2128 z"
           style="fill:none;stroke:#f0eae8;stroke-width:4.28545;stroke-dasharray:none;stroke-opacity:1"
           id="path43" /><path
           d="m 8978.2009,-2888.3024 v 25.4958 h 66.8055 v -25.4958"
           style="fill:none;stroke:#f0eae8;stroke-width:4.28545;stroke-dasharray:none;stroke-opacity:1"
           id="path44" /><path
           d="m 8858.4854,-2888.3024 v 110.3388 h 66.8055 v -26.7222 h -40.0833 v -83.6166"
           style="fill:none;stroke:#f0eae8;stroke-width:4.28545;stroke-dasharray:none;stroke-opacity:1"
           id="path45" /><path
           d="m 8778.8532,-2888.3024 v 65.5791 h 66.8055 v -26.7222 h -40.0833 v -38.8569"
           style="fill:none;stroke:#f0eae8;stroke-width:4.28545;stroke-dasharray:none;stroke-opacity:1"
           id="path46" /><path
           d="m 8845.1243,-2523.3248 v -22.1556 h -40.0833 v -116.2416 h -38.2128 v 26.7222 h 11.4906 v 111.675"
           style="fill:none;stroke:#f0eae8;stroke-width:4.28545;stroke-dasharray:none;stroke-opacity:1"
           id="path47" /><path
           d="m 8966.1759,-2675.0831 h 11.4906 v 116.2416 h 66.8055 v -26.7222 h -40.0833 v -116.2416 h -38.2128 z"
           style="fill:none;stroke:#f0eae8;stroke-width:4.28545;stroke-dasharray:none;stroke-opacity:1"
           id="path48" /><path
           d="m 8966.1759,-2675.0831 h 11.4906 v 116.2416 h 66.8055 v -26.7222 h -40.0833 v -116.2416 h -38.2128 z"
           style="fill:none;stroke:#f0eae8;stroke-width:4.28545;stroke-dasharray:none;stroke-opacity:1"
           id="path49" /><path
           d="m 8886.5437,-2719.8428 h 11.4906 v 116.2416 h 66.8055 v -26.7222 h -40.0833 v -116.2416 h -38.2128 z"
           style="fill:none;stroke:#f0eae8;stroke-width:4.28545;stroke-dasharray:none;stroke-opacity:1"
           id="path50" /><path
           d="m 8806.9115,-2764.6025 h 11.4906 v 116.2416 h 66.8055 v -26.7222 h -40.0833 v -116.2416 h -38.2128 z"
           style="fill:none;stroke:#f0eae8;stroke-width:4.28545;stroke-dasharray:none;stroke-opacity:1"
           id="path51" /><path
           d="m 8754.8471,-2693.1206 h 50.7283 v -26.7222 h -40.0833 v -116.2416 h -10.645"
           style="fill:none;stroke:#f0eae8;stroke-width:4.28545;stroke-dasharray:none;stroke-opacity:1"
           id="path52" /><path
           d="m 8754.8471,-2867.483 h 11.1795 v -20.8194"
           style="fill:none;stroke:#f0eae8;stroke-width:4.28545;stroke-dasharray:none;stroke-opacity:1"
           id="path53" /><path
           d="m 8754.8471,-2563.5178 h 10.645 v -26.7223 h -10.645"
           style="fill:none;stroke:#f0eae8;stroke-width:4.28545;stroke-dasharray:none;stroke-opacity:1"
           id="path54" /><path
           d="m 8964.3054,-2523.3248 v -48.8778 h -38.2128 v 26.7222 h 11.4905 v 22.1556"
           style="fill:none;stroke:#f0eae8;stroke-width:4.28545;stroke-dasharray:none;stroke-opacity:1"
           id="path55" /><path
           d="m 8964.3054,-2523.3248 v -48.8778 h -38.2128 v 26.7222 h 11.4905 v 22.1556"
           style="fill:none;stroke:#f0eae8;stroke-width:4.28545;stroke-dasharray:none;stroke-opacity:1"
           id="path56" /><path
           d="m 8884.6732,-2523.3248 v -93.6375 h -38.2128 v 26.7222 h 11.4906 v 66.9153"
           style="fill:none;stroke:#f0eae8;stroke-width:4.28545;stroke-dasharray:none;stroke-opacity:1"
           id="path57" /><path
           d="m 8845.1243,-2523.3248 v -22.1556 h -40.0833 v -116.2416 h -38.2128 v 26.7222 h 11.4906 v 111.675"
           style="fill:none;stroke:#f0eae8;stroke-width:4.28545;stroke-dasharray:none;stroke-opacity:1"
           id="path58" /><path
           d="m 10321.526,-2826.0636 h 11.491 v 116.2417 h 66.805 v -26.7223 h -40.083 v -116.2416 h -38.213 z"
           style="fill:none;stroke:#f0eae8;stroke-width:4.28545;stroke-dasharray:none;stroke-opacity:1"
           id="path59" /><path
           d="m 10281.443,-2696.4608 h 11.491 v 116.2416 h 66.805 v -26.7222 h -40.083 v -116.2417 h -38.213 z"
           style="fill:none;stroke:#f0eae8;stroke-width:4.28545;stroke-dasharray:none;stroke-opacity:1"
           id="path60" /><path
           d="m 10241.894,-2888.3024 v 17.4791 h 11.491 v 116.2416 h 66.805 v -26.7222 h -40.083 v -106.9985"
           style="fill:none;stroke:#f0eae8;stroke-width:4.28545;stroke-dasharray:none;stroke-opacity:1"
           id="path61" /><path
           d="m 10293.468,-2888.3024 v 4.118 h 66.806 v -4.118"
           style="fill:none;stroke:#f0eae8;stroke-width:4.28545;stroke-dasharray:none;stroke-opacity:1"
           id="path62" /><path
           d="m 10201.811,-2741.2205 h 11.49 v 116.2416 h 66.806 v -26.7222 h -40.083 v -116.2417 h -38.213 z"
           style="fill:none;stroke:#f0eae8;stroke-width:4.28545;stroke-dasharray:none;stroke-opacity:1"
           id="path63" /><path
           d="m 10173.753,-2888.3024 v 88.961 h 66.805 v -26.7222 h -40.083 v -62.2388"
           style="fill:none;stroke:#f0eae8;stroke-width:4.28545;stroke-dasharray:none;stroke-opacity:1"
           id="path64" /><path
           d="m 10122.179,-2785.9802 h 11.49 v 116.2416 h 66.806 v -26.7222 h -40.084 v -116.2417 h -38.212 z"
           style="fill:none;stroke:#f0eae8;stroke-width:4.28545;stroke-dasharray:none;stroke-opacity:1"
           id="path65" /><path
           d="m 10173.753,-2888.3024 v 88.961 h 66.805 v -26.7222 h -40.083 v -62.2388"
           style="fill:none;stroke:#f0eae8;stroke-width:4.28545;stroke-dasharray:none;stroke-opacity:1"
           id="path66-8" /><path
           d="m 10094.12,-2888.3024 v 44.2013 h 66.806 v -26.7222 h -40.083 v -17.4791"
           style="fill:none;stroke:#f0eae8;stroke-width:4.28545;stroke-dasharray:none;stroke-opacity:1"
           id="path67-4" /><path
           d="m 10042.547,-2830.7399 h 11.49 v 116.2416 h 66.806 v -26.7222 h -40.084 v -116.2417 h -38.212 z"
           style="fill:none;stroke:#f0eae8;stroke-width:4.28545;stroke-dasharray:none;stroke-opacity:1"
           id="path68-2" /><path
           d="m 9962.9143,-2888.3024 v 12.8027 h 11.4906 v 116.2417 h 66.8051 v -26.7222 h -40.083 v -102.3222"
           style="fill:none;stroke:#f0eae8;stroke-width:4.28545;stroke-dasharray:none;stroke-opacity:1"
           id="path69-9" /><path
           d="m 10000.593,-2523.3248 v -74.9319 h -38.2131 v 26.7222 h 11.4905 v 48.2097"
           style="fill:none;stroke:#f0eae8;stroke-width:4.28545;stroke-dasharray:none;stroke-opacity:1"
           id="path70-9" /><path
           d="m 10279.573,-2523.3248 v -70.2555 h -38.213 v 26.7222 h 11.49 v 43.5333"
           style="fill:none;stroke:#f0eae8;stroke-width:4.28545;stroke-dasharray:none;stroke-opacity:1"
           id="path71-6" /><path
           d="M 10199.94,-2523.3248 V -2638.34 h -38.212 v 26.7222 h 11.49 v 88.293"
           style="fill:none;stroke:#f0eae8;stroke-width:4.28545;stroke-dasharray:none;stroke-opacity:1"
           id="path72-0" /><path
           d="M 10199.94,-2523.3248 V -2638.34 h -38.212 v 26.7222 h 11.49 v 88.293"
           style="fill:none;stroke:#f0eae8;stroke-width:4.28545;stroke-dasharray:none;stroke-opacity:1"
           id="path73-9" /><path
           d="m 10082.095,-2656.3775 h 11.491 v 116.2416 h 66.805 v -26.7222 h -40.083 v -116.2416 h -38.213 z"
           style="fill:none;stroke:#f0eae8;stroke-width:4.28545;stroke-dasharray:none;stroke-opacity:1"
           id="path74-6" /><path
           d="m 10002.463,-2701.1372 h 11.491 v 116.2416 h 66.805 v -26.7222 h -40.083 v -116.2416 h -38.213 z"
           style="fill:none;stroke:#f0eae8;stroke-width:4.28545;stroke-dasharray:none;stroke-opacity:1"
           id="path75-4" /><path
           d="m 9922.831,-2745.8969 h 11.4906 v 116.2416 h 66.8054 v -26.7222 h -40.0832 v -116.2416 h -38.2128 z"
           style="fill:none;stroke:#f0eae8;stroke-width:4.28545;stroke-dasharray:none;stroke-opacity:1"
           id="path76-3" /><path
           d="m 9894.7727,-2888.3024 v 84.2847 h 66.8055 v -26.7222 h -40.0833 v -57.5625"
           style="fill:none;stroke:#f0eae8;stroke-width:4.28545;stroke-dasharray:none;stroke-opacity:1"
           id="path77-7" /><path
           d="m 9961.0438,-2523.3248 v -3.45 h -40.0833 v -116.2416 h -38.2128 v 26.7222 h 11.4906 v 92.9694"
           style="fill:none;stroke:#f0eae8;stroke-width:4.28545;stroke-dasharray:none;stroke-opacity:1"
           id="path78-4" /><path
           d="m 9843.1988,-2790.6566 h 11.4906 v 116.2416 h 66.8055 v -26.7222 h -40.0833 v -116.2416 h -38.2128 z"
           style="fill:none;stroke:#f0eae8;stroke-width:4.28545;stroke-dasharray:none;stroke-opacity:1"
           id="path79-6" /><path
           d="m 9803.1155,-2661.0539 h 11.4906 v 116.2416 h 66.8055 v -26.7222 h -40.0833 v -116.2416 h -38.2128 z"
           style="fill:none;stroke:#f0eae8;stroke-width:4.28545;stroke-dasharray:none;stroke-opacity:1"
           id="path80-3" /><path
           d="m 9803.1155,-2661.0539 h 11.4906 v 116.2416 h 66.8055 v -26.7222 h -40.0833 v -116.2416 h -38.2128 z"
           style="fill:none;stroke:#f0eae8;stroke-width:4.28545;stroke-dasharray:none;stroke-opacity:1"
           id="path81-9" /><path
           d="m 10572.448,-2888.3024 v 8.7944 h 10.111"
           style="fill:none;stroke:#f0eae8;stroke-width:4.28545;stroke-dasharray:none;stroke-opacity:1"
           id="path82-8" /><path
           d="m 10520.874,-2888.3024 v 22.1555 h 11.491 v 116.2416 h 50.194"
           style="fill:none;stroke:#f0eae8;stroke-width:4.28545;stroke-dasharray:none;stroke-opacity:1"
           id="path83-8" /><path
           d="m 10452.732,-2888.3024 v 93.6374 h 66.806 v -26.7222 h -40.083 v -66.9152"
           style="fill:none;stroke:#f0eae8;stroke-width:4.28545;stroke-dasharray:none;stroke-opacity:1"
           id="path84-2" /><path
           d="m 10478.92,-2523.3248 v -110.3389 h -38.213 v 26.7223 h 11.491 v 83.6166"
           style="fill:none;stroke:#f0eae8;stroke-width:4.28545;stroke-dasharray:none;stroke-opacity:1"
           id="path85-3" /><path
           d="m 10582.559,-2718.5067 h -22.136 v 26.7222 h 11.491 v 116.2417 h 10.645"
           style="fill:none;stroke:#f0eae8;stroke-width:4.28545;stroke-dasharray:none;stroke-opacity:1"
           id="path86-1" /><path
           d="m 10480.791,-2736.5442 h 11.49 v 116.2417 h 66.806 v -26.7223 h -40.083 v -116.2416 h -38.213 z"
           style="fill:none;stroke:#f0eae8;stroke-width:4.28545;stroke-dasharray:none;stroke-opacity:1"
           id="path87-0" /><path
           d="m 10401.159,-2781.3039 h 11.49 v 116.2417 h 66.806 v -26.7223 h -40.084 v -116.2416 h -38.212 z"
           style="fill:none;stroke:#f0eae8;stroke-width:4.28545;stroke-dasharray:none;stroke-opacity:1"
           id="path88-3" /><path
           d="m 10373.1,-2888.3024 v 48.8777 h 66.806 v -26.7222 h -40.084 v -22.1555"
           style="fill:none;stroke:#f0eae8;stroke-width:4.28545;stroke-dasharray:none;stroke-opacity:1"
           id="path89-7" /><path
           d="m 10361.075,-2651.7011 h 11.491 v 116.2416 h 66.805 v -26.7222 h -40.083 v -116.2417 h -38.213 z"
           style="fill:none;stroke:#f0eae8;stroke-width:4.28545;stroke-dasharray:none;stroke-opacity:1"
           id="path90-9" /><path
           d="m 10321.526,-2826.0636 h 11.491 v 116.2417 h 66.805 v -26.7223 h -40.083 v -116.2416 h -38.213 z"
           style="fill:none;stroke:#f0eae8;stroke-width:4.28545;stroke-dasharray:none;stroke-opacity:1"
           id="path91-4" /><path
           d="m 10281.443,-2696.4608 h 11.491 v 116.2416 h 66.805 v -26.7222 h -40.083 v -116.2417 h -38.213 z"
           style="fill:none;stroke:#f0eae8;stroke-width:4.28545;stroke-dasharray:none;stroke-opacity:1"
           id="path92-8" /><path
           d="m 10281.443,-2696.4608 h 11.491 v 116.2416 h 66.805 v -26.7222 h -40.083 v -116.2417 h -38.213 z"
           style="fill:none;stroke:#f0eae8;stroke-width:4.28545;stroke-dasharray:none;stroke-opacity:1"
           id="path93-0" /><path
           d="m 10359.205,-2523.3248 v -25.4958 h -38.213 v 25.4958"
           style="fill:none;stroke:#f0eae8;stroke-width:4.28545;stroke-dasharray:none;stroke-opacity:1"
           id="path94-7" /><path
           d="m 10558.552,-2523.3248 v -65.5791 h -38.212 v 26.7222 h 11.49 v 38.8569"
           style="fill:none;stroke:#f0eae8;stroke-width:4.28545;stroke-dasharray:none;stroke-opacity:1"
           id="path95-7" /><path
           d="m 10359.205,-2523.3248 v -25.4958 h -38.213 v 25.4958"
           style="fill:none;stroke:#f0eae8;stroke-width:4.28545;stroke-dasharray:none;stroke-opacity:1"
           id="path96-8" /><path
           d="m 10359.205,-2523.3248 v -25.4958 h -38.213 v 25.4958"
           style="fill:none;stroke:#f0eae8;stroke-width:4.28545;stroke-dasharray:none;stroke-opacity:1"
           id="path97-4" /><path
           d="m 9243.2852,-2523.3248 v -44.2014 h -38.2127 v 26.7222 h 11.4905 v 17.4792"
           style="fill:none;stroke:#f0eae8;stroke-width:4.28545;stroke-dasharray:none;stroke-opacity:1"
           id="path98-3" /><path
           d="m 10582.559,-2776.6275 h -23.472 v -111.6749"
           style="fill:none;stroke:#f0eae8;stroke-width:4.28545;stroke-dasharray:none;stroke-opacity:1"
           id="path99-7" /><path
           d="m 10080.225,-2523.3248 v -30.1722 h -38.213 v 26.7222 h 11.491 v 3.45"
           style="fill:none;stroke:#f0eae8;stroke-width:4.28545;stroke-dasharray:none;stroke-opacity:1"
           id="path100-2"
           inkscape:export-filename=".\path100-2.png"
           inkscape:export-xdpi="150"
           inkscape:export-ydpi="150" /></g><g
         inkscape:label="Defpoint"
         id="g101"
         style="stroke:#f0eae8;stroke-width:4.28545;stroke-dasharray:none;stroke-opacity:1" /></g></g></svg>
