<?xml version="1.0" encoding="UTF-8" standalone="no"?>
<!-- Created with Inkscape (http://www.inkscape.org/) -->

<svg
   width="1.3767824in"
   height="0.28412628in"
   viewBox="0 0 34.970274 7.2168075"
   version="1.1"
   id="svg1"
   xml:space="preserve"
   inkscape:version="1.3.2 (091e20e, 2023-11-25, custom)"
   sodipodi:docname="Meeting Minutes A4 Template - Option 3.svg"
   inkscape:export-filename="Meeting Minutes A4 Template - Option 3.png"
   inkscape:export-xdpi="150"
   inkscape:export-ydpi="150"
   xmlns:inkscape="http://www.inkscape.org/namespaces/inkscape"
   xmlns:sodipodi="http://sodipodi.sourceforge.net/DTD/sodipodi-0.dtd"
   xmlns="http://www.w3.org/2000/svg"
   xmlns:svg="http://www.w3.org/2000/svg"><sodipodi:namedview
     id="namedview1"
     pagecolor="#ffffff"
     bordercolor="#000000"
     borderopacity="0.25"
     inkscape:showpageshadow="2"
     inkscape:pageopacity="0.0"
     inkscape:pagecheckerboard="0"
     inkscape:deskcolor="#d1d1d1"
     inkscape:document-units="mm"
     inkscape:zoom="0.45344418"
     inkscape:cx="396.96176"
     inkscape:cy="561.25983"
     inkscape:window-width="1366"
     inkscape:window-height="705"
     inkscape:window-x="-8"
     inkscape:window-y="-8"
     inkscape:window-maximized="1"
     inkscape:current-layer="layer1"
     inkscape:export-bgcolor="#ffffffff" /><defs
     id="defs1"><rect
       x="386.48639"
       y="181.38948"
       width="233.87325"
       height="72.342537"
       id="rect4-6-1-6-1-9-8-9" /></defs><g
     inkscape:label="Layer 1"
     inkscape:groupmode="layer"
     id="layer1"
     style="display:inline"
     transform="translate(-111.67881,-284.03293)"><g
       id="g1"
       transform="translate(5.6870411)"><g
         id="g122"
         transform="translate(-70.227055,-75.375807)"
         inkscape:export-filename=".\locationsvg"
         inkscape:export-xdpi="150"
         inkscape:export-ydpi="150"><text
           xml:space="preserve"
           transform="matrix(0.13229166,0,0,0.13229166,132.15218,335.95902)"
           id="text4-5-8-8-0-7-5-1"
           style="font-style:normal;font-variant:normal;font-weight:300;font-stretch:normal;font-size:21.3333px;font-family:Poppins;-inkscape-font-specification:'Poppins, Light';font-variant-ligatures:normal;font-variant-caps:normal;font-variant-numeric:normal;font-variant-east-asian:normal;white-space:pre;shape-inside:url(#rect4-6-1-6-1-9-8-9);display:inline;fill:#000000;fill-opacity:1;stroke:none;stroke-width:1.13386;stroke-dasharray:none;stroke-opacity:1"><tspan
             x="386.48633"
             y="200.85169"
             id="tspan3">Shop No.19 Marina,
</tspan><tspan
             x="386.48633"
             y="227.51831"
             id="tspan4">Somabay, Red Sea</tspan></text><g
           id="g60-0-3-1-2"
           transform="matrix(0.03211965,0,0,0.03211965,178.51177,364.55095)"><path
             style="opacity:1;fill:#161614;fill-opacity:1"
             d="m -12.157026,-16.57656 c -29.49632,-5.149795 -53.39112,-29.239056 -58.37165,-58.84669 -1.14568,-6.81068 -1.14568,-18.10816 0,-24.91885 5.02245,-29.85684 29.03762,-53.872 58.89445,-58.89445 6.8106804,-1.14568 18.1081604,-1.14568 24.918851,0 14.113269,2.3741 26.961419,8.84898 37.425089,18.86054 10.47616,10.0235 17.08601,21.54725 20.72044,36.12445 1.17723,4.72175 1.33692,6.67688 1.33692,16.36889 0,9.692 -0.15969,11.64714 -1.33692,16.368886 -3.63443,14.57719 -10.24428,26.100937 -20.72044,36.124443 -10.37592,9.927595 -23.430179,16.506347 -37.425089,18.86054 -6.6248106,1.114411 -18.9173006,1.091336 -25.441651,-0.04776 z"
             id="path57-7-5-1-7" /><path
             style="opacity:1;fill:#e2c58a;fill-opacity:1"
             d="M 4.8627744,-56.455104 C 15.878645,-70.54196 23.134935,-84.16308 25.358685,-94.9289 c 2.312089,-11.19357 0.27074,-19.85602 -6.34623,-26.9301 -12.8665906,-13.75542 -35.748121,-10.05681 -43.793901,7.07892 -6.54143,13.93182 -0.0512,31.2089 21.4238004,57.030753 2.45578997,2.952867 4.59206,5.370164 4.74729,5.371769 0.15522,0.0016 1.71813,-1.83329 3.47313,-4.077546 z"
             id="path58-7-4-5-8" /><path
             style="opacity:1;fill:#161614;fill-opacity:1"
             d="m -4.5603756,-94.58808 c -8.1430504,-3.69888 -8.4431204,-14.8693 -0.50269,-18.71319 7.02079,-3.39871 14.9159903,1.47718 14.9185003,9.21331 10e-4,4.49945 -2.28942,7.99534 -6.3516603,9.69265 -2.72913003,1.1403 -5.26273,1.07974 -8.06415,-0.19277 z"
             id="path59-1-6-1-6" /></g></g></g></g></svg>
