<?xml version="1.0" encoding="UTF-8" standalone="no"?>
<!-- Created with Inkscape (http://www.inkscape.org/) -->

<svg
   width="2.1113732in"
   height="0.37500003in"
   viewBox="0 0 53.62888 9.5250007"
   version="1.1"
   id="svg1"
   xml:space="preserve"
   xmlns="http://www.w3.org/2000/svg"
   xmlns:svg="http://www.w3.org/2000/svg"><defs
     id="defs1" /><g
     id="layer1"
     transform="translate(-20.637501,-7.9374991)"><path
       style="fill:#161618;fill-opacity:1;stroke-width:0.219347"
       d="m 24.064729,17.364066 c -1.888819,-0.420516 -3.163247,-1.947438 -3.396786,-4.069719 -0.07113,-0.645959 -0.01495,-1.468117 0.140697,-2.060272 0.596931,-2.2713202 2.562746,-3.5403253 5.02037,-3.2408191 1.694338,0.2064582 2.942222,1.1686681 3.391569,2.6151041 0.07435,0.239383 0.150145,0.533194 0.168404,0.652895 l 0.03322,0.217636 H 28.540036 27.65788 l -0.07182,-0.304696 c -0.209016,-0.887108 -1.100181,-1.5277127 -2.219032,-1.5951056 -1.456265,-0.08773 -2.477759,0.6719856 -2.84753,2.1177666 -0.219384,0.857801 -0.12104,1.976604 0.235904,2.683701 0.427728,0.847316 1.099731,1.32103 2.064326,1.4552 1.35287,0.188159 2.635728,-0.520208 2.924225,-1.614703 l 0.06497,-0.246662 h 0.873392 0.873402 l -0.04113,0.243428 c -0.191811,1.135313 -1.017223,2.242382 -2.058345,2.760715 -0.721079,0.358995 -1.04927,0.430365 -2.089259,0.454399 -0.663378,0.01534 -1.005285,-0.0029 -1.302261,-0.06888 z m 10.123611,0.0039 c -1.7381,-0.355146 -3.000157,-1.614528 -3.51769,-3.510195 -0.154071,-0.56435 -0.139026,-1.84382 0.02902,-2.466506 0.45176,-1.6740459 1.666474,-2.8869521 3.294163,-3.2892484 0.721127,-0.1782422 1.988774,-0.1761902 2.661003,0.0029 1.691731,0.4542725 2.884306,1.6579065 3.272435,3.3027604 l 0.105359,0.446466 5.144751,0.01476 5.144763,0.01476 V 10.810558 9.7365905 H 49.944915 49.567688 V 8.8370346 7.9374989 h 1.247757 1.247756 v 3.8883411 3.888381 h 1.334805 1.334805 v 0.870517 0.870521 H 52.527487 50.322142 V 15.424034 13.39281 h -5.12826 -5.128271 l -0.101597,0.42074 c -0.154337,0.638913 -0.366968,1.121606 -0.739261,1.678179 -0.674691,1.008667 -1.597479,1.628949 -2.785043,1.871995 -0.543618,0.11127 -1.715158,0.113097 -2.251303,0.0029 z m 2.103669,-1.653178 c 0.669434,-0.208158 1.330261,-0.78049 1.663602,-1.440828 0.475326,-0.941625 0.474681,-2.213455 -9.3e-4,-3.156985 -0.222479,-0.440696 -0.787192,-1.019281 -1.198123,-1.2275268 -1.165571,-0.5906305 -2.691369,-0.3659514 -3.576953,0.5267168 -0.615154,0.620086 -0.877037,1.390484 -0.83401,2.45351 0.0387,0.955275 0.287441,1.559426 0.894163,2.171453 0.748991,0.755557 1.942562,1.018915 3.052933,0.673665 z m 20.183365,1.234831 c 0.09262,-0.280104 0.692892,-2.141528 1.333917,-4.136488 C 58.450315,10.818172 59.067138,8.9051923 59.18,8.562053 l 0.205189,-0.6238832 h 1.432886 1.432875 l 1.572675,4.7603162 1.572683,4.760315 -0.89388,-0.01602 -0.893879,-0.01593 L 62.32017,13.55299 61.031782,9.6791558 H 60.787269 60.542758 L 60.337365,10.33204 c -0.11296,0.359094 -0.672307,2.102331 -1.242988,3.873852 l -1.037605,3.220959 -0.874896,0.01593 -0.874915,0.01602 z m 10.444797,-4.24927 V 7.9381829 h 2.114084 c 1.162738,0 2.318372,0.027549 2.568052,0.06145 1.060448,0.1434711 1.863476,0.8092908 2.172127,1.8009866 0.07816,0.2510675 0.109952,0.5274485 0.109952,0.9553035 0,0.766666 -0.125222,1.134229 -0.529238,1.553397 -0.15579,0.161614 -0.283249,0.301402 -0.283249,0.310615 0,0.01075 0.0986,0.06702 0.219061,0.128533 0.334855,0.170838 0.73422,0.633141 0.860584,0.996202 0.151902,0.436421 0.153358,1.45131 0.0029,1.944252 -0.227463,0.744742 -0.797021,1.300406 -1.633785,1.593904 -0.404455,0.141888 -0.417664,0.142593 -3.003323,0.161115 l -2.597079,0.01856 z m 4.950272,3.110236 c 0.239305,-0.09999 0.530556,-0.430697 0.62121,-0.705368 0.03889,-0.117777 0.06048,-0.389449 0.04827,-0.606263 -0.02716,-0.481062 -0.217216,-0.806478 -0.585229,-1.00213 -0.234673,-0.124772 -0.320199,-0.13207 -1.770006,-0.151209 l -1.523424,-0.02013 v 1.281754 1.281755 h 1.510772 c 1.137599,0 1.557138,-0.01934 1.698442,-0.07855 z M 71.60351,11.878992 c 0.387308,-0.187484 0.569254,-0.539817 0.567378,-1.098735 -9.3e-4,-0.373045 -0.0253,-0.477759 -0.165161,-0.716262 C 71.732053,9.5970174 71.608004,9.5659594 70.010543,9.5644544 L 68.66122,9.5634781 v 1.2187399 1.218739 h 1.345513 c 1.247434,0 1.363812,-0.0098 1.596777,-0.121646 z"
       id="path65-1-9" /></g></svg>
